# xmcd CD database file
#
# Track frame offsets:
#	150
#	12797
#	26589
#	39196
#	53213
#	65723
#	77186
#	89032
#	99278
#	114090
#	125223
#	137572
#	148487
#	158868
#
# Disc length: 2303 seconds
#
# Revision: 4
# Processed by: cddbd v1.5.2PL0 Copyright (c) Steve Scherf et al.
# Submitted via: CDex 1.60beta1-cs1
#
DISCID=bf08fd0e
DTITLE=Johnny Smith - Walk, Don't Run!
DYEAR=1954
DGENRE=Jazz
TTITLE0=Walk, Don't Run!
TTITLE1=Sophisticated Lady
TTITLE2=I'll Remember April
TTITLE3=What's New
TTITLE4=How About You?
TTITLE5=In a Sentimental Mood
TTITLE6=Stranger in Paradise
TTITLE7=Someone to Watch Over Me
TTITLE8=Easy to Love
TTITLE9=Lover Man
TTITLE10=Autumn in New York
TTITLE11='S Wonderful
TTITLE12=Our Love is Here to Stay
TTITLE13=Lullaby of Birdland
EXTD=YEAR: 1954
EXTT0=
EXTT1=
EXTT2=
EXTT3=
EXTT4=
EXTT5=
EXTT6=
EXTT7=
EXTT8=
EXTT9=
EXTT10=
EXTT11=
EXTT12=
EXTT13=
PLAYORDER=
